<svg width="24" height="24" viewBox="0 0 24 24" fill="none" xmlns="http://www.w3.org/2000/svg">
<g clip-path="url(#clip0_4:129)">
<path d="M8.7703 0.0515671C8.1703 0.168755 7.56561 0.637505 7.31248 1.18126C7.13905 1.55157 7.07811 1.86563 7.07811 2.39532V2.8125H5.25467C4.21405 2.8125 3.32811 2.83125 3.1828 2.85938C2.30623 3.02813 1.63592 3.72188 1.49061 4.62188C1.34998 5.47032 1.79998 6.36094 2.57342 6.76875L2.89686 6.9375L2.92498 7.20938C2.94373 7.35469 3.22967 10.7859 3.56248 14.8359C3.89998 18.8813 4.19061 22.275 4.21405 22.3734C4.3828 23.1 5.04373 23.7563 5.78436 23.9297C6.21092 24.0328 17.789 24.0328 18.2156 23.9297C18.9562 23.7563 19.6172 23.1 19.7859 22.3734C19.8094 22.275 20.1 18.8813 20.4375 14.8359C20.7703 10.7859 21.0562 7.35469 21.075 7.20938L21.1031 6.9375L21.4265 6.76875C22.2 6.36094 22.65 5.47032 22.5094 4.62188C22.364 3.72188 21.6937 3.02813 20.8172 2.85938C20.6719 2.83125 19.7859 2.8125 18.7453 2.8125H16.9219V2.39532C16.9219 2.17032 16.8984 1.87032 16.875 1.72969C16.7156 0.885942 16.0359 0.206255 15.1922 0.0468788C14.8828 -0.0093708 9.0703 -0.0093708 8.7703 0.0515671ZM15.1406 1.5C15.4219 1.64532 15.5156 1.86563 15.5156 2.39063V2.8125H12H8.48436V2.39063C8.48436 1.875 8.57811 1.64532 8.84998 1.50469C9.01873 1.41563 9.13123 1.41094 11.9906 1.40625C14.8734 1.40625 14.9625 1.41094 15.1406 1.5ZM20.7656 4.3125C20.9765 4.42032 21.1406 4.6875 21.1406 4.92188C21.1406 5.15625 20.9765 5.42344 20.7656 5.53125C20.5828 5.625 20.5078 5.625 12 5.625C3.49217 5.625 3.41717 5.625 3.23436 5.53125C3.02342 5.42344 2.85936 5.15625 2.85936 4.92188C2.85936 4.69688 3.02342 4.42032 3.22498 4.31719C3.39373 4.22344 3.52967 4.22344 11.9906 4.21875C20.5125 4.21875 20.5828 4.21875 20.7656 4.3125ZM19.6594 7.22813C19.65 7.34063 19.364 10.7297 19.0312 14.7563C18.375 22.6969 18.4265 22.2469 18.1265 22.4719L17.9953 22.5703H12H6.00467L5.87342 22.4719C5.57342 22.2469 5.62498 22.6969 4.96873 14.7563C4.63592 10.7297 4.34998 7.34063 4.34061 7.22813L4.31248 7.03125H12H19.6875L19.6594 7.22813Z" fill="#2C3E50"/>
<path d="M7.43904 8.53594C7.32185 8.59687 7.2281 8.69531 7.16716 8.82656L7.06873 9.02812L7.42498 14.8125C7.82341 21.2859 7.78123 20.9016 8.15154 21.0937C8.3906 21.2109 8.5781 21.2109 8.81717 21.0937C8.94373 21.0281 9.03279 20.9344 9.09842 20.7984L9.19686 20.5969L8.8406 14.8125C8.44217 8.33906 8.48435 8.72344 8.11404 8.53125C7.87966 8.41406 7.66873 8.41406 7.43904 8.53594Z" fill="#2C3E50"/>
<path d="M11.6625 8.53594C11.5547 8.59219 11.4469 8.7 11.3906 8.8125C11.2969 8.99531 11.2969 9.07969 11.2969 14.8125C11.2969 20.55 11.2969 20.6297 11.3906 20.8125C11.4984 21.0234 11.7656 21.1875 12 21.1875C12.2344 21.1875 12.5016 21.0234 12.6094 20.8125C12.7031 20.6297 12.7031 20.55 12.7031 14.8125C12.7031 9.075 12.7031 8.99531 12.6094 8.8125C12.4359 8.47031 12.0141 8.34844 11.6625 8.53594Z" fill="#2C3E50"/>
<path d="M15.8765 8.53594C15.5156 8.72812 15.5578 8.3625 15.1594 14.8125L14.8031 20.5969L14.9015 20.7984C14.9672 20.9344 15.0562 21.0281 15.1828 21.0937C15.4219 21.2109 15.6094 21.2109 15.8484 21.0937C16.2187 20.9016 16.1765 21.2859 16.575 14.8125L16.9312 9.02812L16.8328 8.82656C16.6594 8.475 16.2375 8.34375 15.8765 8.53594Z" fill="#2C3E50"/>
</g>
<defs>
<clipPath id="clip0_4:129">
<rect width="24" height="24" fill="white"/>
</clipPath>
</defs>
</svg>
