<svg width="24" height="24" viewBox="0 0 24 24" fill="none" xmlns="http://www.w3.org/2000/svg">
<path d="M19.7297 0.084374C19.5844 0.135937 19.3734 0.239062 19.2609 0.318749C19.1484 0.398437 15.2719 4.24687 10.65 8.86875L2.25001 17.2734L1.14376 19.9641C0.534389 21.4406 0.0234516 22.7344 0.0140766 22.8328C-0.0656108 23.4094 0.464076 24 1.06408 24C1.26564 24 1.44376 23.9297 4.21876 22.7859L6.72189 21.7547L15.1547 13.3266C19.7906 8.69062 23.6438 4.80469 23.7188 4.6875C24.0422 4.17656 24.0844 3.51562 23.8172 2.98125C23.7 2.74687 23.4656 2.48437 22.4672 1.49062C21.4547 0.482812 21.2156 0.267187 20.9859 0.164062C20.6203 -0.00468845 20.1 -0.037501 19.7297 0.084374ZM20.6953 0.815624C20.8688 0.899999 21.2063 1.20469 22.0172 2.02031C23.175 3.1875 23.2922 3.34687 23.2969 3.75469C23.2969 4.13437 23.1422 4.35469 22.1625 5.32969L21.2578 6.23437L19.5094 4.48594L17.7656 2.74219L18.6891 1.81875C19.6781 0.834374 19.8609 0.707812 20.25 0.703124C20.3766 0.703124 20.5547 0.749999 20.6953 0.815624ZM19.0172 4.97812C19.9547 5.91562 20.7188 6.69844 20.7188 6.72656C20.7188 6.75 20.5031 6.98906 20.2406 7.25156L19.7578 7.73437L18.0141 5.99062L16.2656 4.24219L16.7438 3.76406C17.0109 3.49687 17.2453 3.28125 17.2734 3.28125C17.2969 3.28125 18.0844 4.04531 19.0172 4.97812ZM14.2828 9.225C11.0484 12.4641 11.1563 12.3328 11.4141 12.5859C11.6672 12.8437 11.5359 12.9516 14.775 9.71719L17.7656 6.72656L18.5156 7.47656L19.2656 8.22656L12.9047 14.5875L6.53907 20.9531L5.78908 20.2031L5.03908 19.4531L8.0297 16.4625C9.67032 14.8219 11.0156 13.4391 11.0156 13.3969C11.0156 13.1812 10.8188 12.9844 10.6031 12.9844C10.5609 12.9844 9.17814 14.3297 7.53751 15.9703L4.54689 18.9609L3.79689 18.2109L3.04689 17.4609L9.40782 11.1L15.7734 4.73437L16.5234 5.48437L17.2734 6.23437L14.2828 9.225ZM4.28908 19.7344C5.16095 20.6062 5.86876 21.3328 5.85939 21.3422C5.81251 21.3797 3.17345 22.4531 3.12189 22.4531C3.05626 22.4531 1.54689 20.9484 1.54689 20.8828C1.54689 20.8172 2.64376 18.1406 2.67189 18.1406C2.68595 18.1406 3.41251 18.8578 4.28908 19.7344ZM2.30626 22.7906C2.24533 22.8516 1.12501 23.2969 1.02658 23.2969C0.904701 23.2969 0.703139 23.0953 0.703139 22.9734C0.703139 22.8891 1.06408 21.9609 1.18126 21.7312C1.22345 21.6562 1.29376 21.7078 1.78595 22.2C2.09064 22.5047 2.32501 22.7719 2.30626 22.7906Z" fill="#969CB2"/>
</svg>
