<svg width="24" height="24" viewBox="0 0 24 24" fill="none" xmlns="http://www.w3.org/2000/svg">
<path d="M11.1094 4.3875C8.34844 4.71563 5.78906 5.99063 3.07031 8.39532C2.11875 9.23438 0.553125 10.9266 0.15 11.5547C-0.01875 11.8172 -0.01875 12.1828 0.15 12.4453C0.365625 12.7828 1.275 13.8375 1.92187 14.4984C4.23281 16.8797 6.80625 18.5484 9.23437 19.2422C10.2891 19.5422 10.8234 19.6125 12 19.6125C13.1766 19.6125 13.7109 19.5422 14.7656 19.2422C17.6109 18.4266 20.7375 16.2094 23.2312 13.2281C23.9156 12.4125 23.9719 12.3141 23.9719 12C23.9719 11.6859 23.9156 11.5875 23.2312 10.7719C20.7516 7.81407 17.6344 5.59219 14.8125 4.77188C13.8656 4.49532 13.2375 4.40625 12.2109 4.3875C11.6953 4.37344 11.1984 4.37813 11.1094 4.3875ZM13.1484 6.02344C15.3562 6.35625 17.7609 7.65469 20.0719 9.76875C20.7797 10.4109 22.1719 11.8969 22.1719 12.0047C22.1719 12.0188 22.0125 12.2203 21.8109 12.4453C19.0828 15.5672 15.9797 17.55 13.1484 17.9766C12.5484 18.0656 11.4516 18.0656 10.8516 17.9766C8.8125 17.6672 6.6375 16.5563 4.47656 14.7234C3.69375 14.0625 1.82812 12.1406 1.82812 12C1.82812 11.9813 1.9875 11.7797 2.18906 11.5547C4.89844 8.45625 8.00156 6.46407 10.8094 6.02813C11.3812 5.93907 12.5672 5.93907 13.1484 6.02344Z" fill="#969CB2"/>
<path d="M11.3438 7.29375C9.31406 7.66406 7.87031 8.98594 7.37813 10.9219C7.25156 11.4187 7.25156 12.5812 7.37813 13.0781C7.83281 14.8594 9.14063 16.1672 10.9219 16.6219C11.4188 16.7484 12.5813 16.7484 13.0781 16.6219C14.8594 16.1672 16.1672 14.8594 16.6219 13.0781C16.6922 12.8062 16.7109 12.5625 16.7109 12C16.7109 11.4375 16.6922 11.1937 16.6219 10.9219C16.1766 9.16406 14.9063 7.875 13.1484 7.39687C12.8297 7.30781 11.6344 7.24219 11.3438 7.29375ZM12.75 8.93437C13.6266 9.13125 14.4281 9.77344 14.8359 10.6172C15.0797 11.1187 15.1547 11.5031 15.1313 12.1406C15.1078 12.7453 14.9906 13.1531 14.7094 13.6312C14.5125 13.9687 13.9688 14.5125 13.6313 14.7094C12.6422 15.2906 11.3578 15.2906 10.3688 14.7094C10.0313 14.5125 9.4875 13.9687 9.29063 13.6312C8.70938 12.6422 8.70938 11.3578 9.29063 10.3687C9.4875 10.0312 10.0313 9.4875 10.3688 9.29062C11.0766 8.87344 11.9063 8.74687 12.75 8.93437Z" fill="#969CB2"/>
</svg>
